# Blender v3.2.0 OBJ File: ''
# www.blender.org
mtllib OldTownHall.mtl
o Sketchup
v 4.680534 -0.000017 -4.003802
v 5.117768 -0.000017 5.384735
v 4.363131 -0.000017 4.664489
v 5.435171 -0.000017 -3.283556
v 13.792967 -0.000017 5.702391
v 14.110371 -0.000017 -2.965900
v -12.379646 4.781533 4.803889
v -12.143269 4.781533 4.584211
v -12.179701 4.781533 -0.656627
v 5.115580 4.781533 5.444504
v 4.895902 4.781533 5.208127
v 5.279093 4.781533 -5.256850
v 5.515470 4.781533 -5.476527
v -11.960024 4.781533 -0.420250
v -11.659349 4.781533 -0.637573
v -11.439672 4.781533 -0.401196
v -11.459404 4.781533 -6.098089
v -11.239727 4.781533 -5.861712
v 5.515470 -0.000017 -5.476527
v -11.459404 -0.000017 -6.098089
v 5.435171 3.416161 -3.283556
v 5.115580 -0.000017 5.444504
v 5.117768 3.416161 5.384735
v 5.276470 4.222733 1.050589
v -12.379646 -0.000017 4.803889
v -12.179701 3.194799 -0.656627
v -11.659349 2.584530 -0.637573
v -12.179701 2.584530 -0.656627
v -11.659349 3.194799 -0.637573
v -11.659349 3.352118 -0.637573
v -11.595018 2.584530 -2.394431
v -11.595018 -0.000017 -2.394431
v -12.115370 2.584530 -2.413485
v -12.179701 -0.000017 -0.656627
v -12.115370 -0.000017 -2.413485
v -12.878073 3.339139 3.144843
v -12.345844 -0.000017 3.880761
v -12.345844 3.339139 3.880761
v -12.878073 -0.000017 3.144843
v -12.203587 3.352118 -0.004311
v -12.787966 -0.000017 0.684026
v -12.787966 3.339139 0.684026
v -12.203587 -0.000017 -0.004311
v -12.203587 3.194799 -0.004311
v -12.348810 3.367487 3.961754
v -12.350027 3.339139 3.994985
v -12.319647 4.046937 3.165291
v -12.319647 3.339139 3.165291
v -12.787966 3.352118 0.684026
v -12.229540 4.046937 0.704473
v -12.787966 3.367487 0.684026
v -12.940264 3.367487 0.678449
v -12.229540 3.352118 0.704473
v -13.030371 3.339139 3.139266
v -13.030371 3.367487 3.139266
v -12.940264 3.339139 0.678449
v -12.198198 3.381353 -0.151465
v -12.196821 3.352118 -0.189061
v -12.179701 3.352118 -0.656627
v -12.366121 -0.000017 4.434525
v 4.895902 4.616433 5.208127
v -11.960024 4.616433 -0.420250
v -12.143269 4.616433 4.584211
v -11.439672 4.616433 -0.401196
v -11.239727 4.616433 -5.861712
v 5.279093 4.616433 -5.256850
v 13.792967 3.416161 5.702391
v 13.951668 4.222733 1.368245
v 14.110371 3.416161 -2.965900
v -11.905745 -0.000017 -4.915041
v -11.906708 -0.000017 -4.888763
v -11.907955 -0.000017 -4.901966
v -11.902084 -0.000017 -4.876334
v -11.900225 -0.000017 -4.927100
v -11.894402 -0.000017 -4.865524
v -11.891773 -0.000017 -4.937318
v -11.884184 -0.000017 -4.857071
v -11.880962 -0.000017 -4.945001
v -11.872126 -0.000017 -4.851552
v -11.868534 -0.000017 -4.949624
v -11.859049 -0.000017 -4.849341
v -11.855331 -0.000017 -4.950873
v -11.845846 -0.000017 -4.850589
v -11.842255 -0.000017 -4.948661
v -11.833418 -0.000017 -4.855213
v -11.830196 -0.000017 -4.943141
v -11.822607 -0.000017 -4.862895
v -11.819979 -0.000017 -4.934689
v -11.814156 -0.000017 -4.873114
v -11.812296 -0.000017 -4.923880
v -11.808636 -0.000017 -4.885172
v -11.807673 -0.000017 -4.911450
v -11.806423 -0.000017 -4.898248
v -11.906708 7.912083 -4.888763
v -11.905745 7.912083 -4.915041
v -11.907955 7.912083 -4.901966
v -11.902084 7.912083 -4.876334
v -11.900225 7.912083 -4.927100
v -11.894402 7.912083 -4.865524
v -11.891773 7.912083 -4.937318
v -11.884184 7.912083 -4.857071
v -11.880962 7.912083 -4.945001
v -11.872126 7.912083 -4.851552
v -11.868534 7.912083 -4.949624
v -11.859049 7.912083 -4.849341
v -11.855331 7.912083 -4.950873
v -11.845846 7.912083 -4.850589
v -11.842255 7.912083 -4.948661
v -11.833418 7.912083 -4.855213
v -11.830196 7.912083 -4.943141
v -11.822607 7.912083 -4.862895
v -11.819979 7.912083 -4.934689
v -11.814156 7.912083 -4.873114
v -11.812296 7.912083 -4.923880
v -11.808636 7.912083 -4.885172
v -11.807673 7.912083 -4.911450
v -11.806423 7.912083 -4.898248
v -11.849997 7.084639 -6.227064
v -11.897367 7.884739 -4.933342
v -11.897367 7.084639 -4.933342
v -11.849997 7.884739 -6.227064
vt 207.340012 305.364807
vt 190.126068 -64.262634
vt 219.836197 -35.906487
vt 177.629883 277.008667
vt -151.417206 -76.768776
vt -163.913391 264.502502
vt 898.623718 23.922081
vt 877.834534 -9.548062
vt 904.619690 24.141634
vt 877.669861 -5.051076
vt 895.076172 120.804649
vt 877.669861 -5.051076
vt 898.623718 23.922081
vt 872.069153 147.904510
vt 842.770630 387.817047
vt 174.468491 363.346100
vt 878.468140 -26.852795
vt 190.212234 -66.615753
vt 879.000610 -41.394684
vt 871.128784 173.586243
vt 868.596069 242.753876
vt 848.109802 242.003738
vt 270.323303 0.000000
vt -71.176697 134.495178
vt -71.176697 0.000000
vt 99.573303 166.250000
vt 270.323303 134.495178
vt 860.343140 341.240356
vt 860.380981 340.205780
vt 860.430176 340.725555
vt 860.198975 339.716431
vt 860.125793 341.715088
vt 859.896545 339.290863
vt 859.793030 342.117401
vt 859.494202 338.958069
vt 859.367432 342.419861
vt 859.019470 338.740753
vt 858.878113 342.601868
vt 858.504700 338.653717
vt 858.358337 342.651031
vt 857.984924 338.702881
vt 857.843506 342.563995
vt 857.495544 338.884888
vt 857.368774 342.346680
vt 857.070007 339.187378
vt 856.966492 342.013885
vt 856.737183 339.589661
vt 856.664001 341.588318
vt 856.519897 340.064392
vt 856.481995 341.098969
vt 856.432861 340.579193
vt -15.656119 -1.941535
vt -15.490364 -1.535884
vt -15.515911 8.141718
vt -3.387922 -3.124480
vt -3.541966 -2.687992
vt -3.273261 16.636377
vt -3.107506 17.042028
vt -15.361866 7.705231
vt -15.151025 8.106535
vt -14.996980 7.670047
vt -15.010817 18.189789
vt -14.856771 17.753302
vt 0.914847 0.971722
vt 0.006456 0.016237
vt 0.914847 0.016237
vt 0.006456 0.971722
vt 8.174088 -17.536335
vt 8.954722 -17.569319
vt 8.640027 -15.953109
vt -10.279683 -13.171595
vt -10.611731 -14.763549
vt -9.862689 -14.763549
vt -10.995375 2.991813
vt -12.006969 3.455078
vt -11.998652 2.999053
vt -11.976331 3.454857
vt -11.985405 3.952441
vt -11.012766 3.945421
vt -15.093517 8.829493
vt -15.458648 8.524623
vt -15.093517 8.524623
vt -15.458648 8.829493
vt 2.361955 8.524623
vt -1.149681 8.829493
vt -1.149681 8.524623
vt 2.361955 8.829493
vt 15.458648 8.829493
vt 3.502243 8.524623
vt 15.458648 8.524623
vt 3.502243 8.829493
vt -6.193605 8.829493
vt 1.149681 8.524623
vt 1.149681 8.829493
vt -6.193605 8.524623
vt -3.502243 8.829493
vt -15.093517 8.524623
vt -3.502243 8.524623
vt -15.093517 8.829493
vt 6.193605 8.524623
vt 2.361955 8.829493
vt 2.361955 8.524623
vt 6.193605 8.829493
vt -2.745161 -3.165862
vt 3.342236 -11.311868
vt 3.342236 -3.165862
vt -2.745161 -11.311868
vt 2.745161 -2.128745
vt -3.342236 6.017262
vt -3.342236 -2.128745
vt 2.745161 6.017262
vt 0.479090 0.484694
vt 0.305943 0.298469
vt 0.479824 0.295918
vt 0.304475 0.459184
vt 0.000000 1.000000
vt 0.714450 1.200803
vt 0.000000 1.200803
vt 0.000000 1.994527
vt 1.000000 2.000000
vt 0.000000 2.000000
vt 0.714450 1.994527
vt 0.883134 1.597665
vt 1.000000 1.000000
vt 1.000000 1.000000
vt 1.994901 0.007983
vt 1.979258 1.000000
vt 1.002988 0.810506
vt 1.015643 0.007983
vt 26.287323 -0.000000
vt -6.921507 1.698552
vt -6.921507 -0.000000
vt 9.682907 2.099587
vt 26.287323 1.698552
vt 0.404989 0.413265
vt 0.228173 0.198980
vt 0.402788 0.247449
vt 0.229640 0.436224
vt 2.867207 0.668210
vt 2.819560 0.540570
vt 2.867207 0.540570
vt 2.819560 0.668210
vt 0.339131 0.540570
vt 0.500000 -0.000000
vt 0.500000 0.540570
vt 0.339131 -0.000000
vt 0.922889 0.704329
vt 0.915473 0.698400
vt 0.925932 0.698400
vt 0.849959 0.846439
vt 0.849959 0.698400
vt 1.878826 0.701114
vt 1.961450 0.698400
vt 1.961450 0.701114
vt 0.624631 0.698400
vt 0.849959 0.000000
vt 0.849959 0.698400
vt 0.624631 0.000000
vt 2.867207 0.846439
vt 2.918340 0.704329
vt 2.932286 0.704329
vt 2.867207 0.701114
vt 2.918340 0.701114
vt -1.208413 0.122810
vt -1.259512 0.127087
vt -1.210811 -0.026834
vt -1.209015 0.846439
vt -1.260148 0.698400
vt -1.209015 0.698400
vt -1.274093 0.698400
vt -1.274093 0.704329
vt 2.918340 0.698400
vt 2.932286 0.698400
vt 2.923395 0.642944
vt 2.917704 0.127087
vt 2.931640 0.128253
vt 2.909459 0.641778
vt -1.197793 0.785747
vt -1.251267 0.641778
vt -1.200168 0.637501
vt 1.000000 1.000083
vt 1.000000 -0.000000
vt 0.500000 1.000083
vt 0.966179 -0.000000
vt 0.624631 0.846439
vt 0.546256 0.707229
vt 0.542813 0.701114
vt 0.500000 0.701114
vt 0.915473 -0.000000
vt 2.867207 1.000083
vt 2.819560 0.701114
vt 2.867207 0.701114
vt 2.819560 1.000083
vt 0.498273 0.973662
vt 0.498268 0.651218
vt 0.498269 0.683187
vt 0.498266 0.527203
vt 0.000000 0.973662
vt 0.337953 0.527203
vt 0.337945 0.001992
vt -0.000014 0.001992
vt 1.000000 -0.000000
vt 0.008216 -0.971556
vt 1.000000 -1.000000
vt 0.000000 -0.000000
vt 1.000000 1.000000
vt -0.000000 0.000000
vt 1.000000 0.000000
vt -0.000000 1.000000
vt 0.006978 1.011157
vt 1.000000 0.000000
vt 1.006234 1.002200
vt -0.000000 0.000000
vt -0.000000 1.000000
vt 1.000000 -0.000000
vt 0.958689 0.990424
vt 0.041472 0.005726
vt 0.001946 0.953338
vt 1.196857 339.401917
vt -11.729476 336.544769
vt 1.196857 336.544769
vt -11.729476 339.401917
vt 61.037170 -960.941284
vt 67.034126 -958.945923
vt 61.190372 -957.145691
vt 59.929546 337.852936
vt 65.926865 336.544769
vt 65.926865 339.401917
vt 2.653544 18.802244
vt 7.149672 15.855743
vt 7.149672 85.884720
vt 3.426525 15.855743
vt 3.426525 0.000000
vt 2.456059 15.855743
vt 0.000000 0.000000
vt -0.000000 15.855743
vt -79.438316 339.401917
vt -79.438316 336.544769
vt -73.831070 339.401917
vt -77.582764 -808.807007
vt -71.844101 -808.807007
vt -71.976669 -805.212952
vt 116.919632 337.852936
vt 114.186295 321.997192
vt 116.919632 321.997192
vt 114.186295 337.852936
vt 0.465150 0.520408
vt 0.240646 0.275510
vt 0.466618 0.295918
vt 0.240646 0.545918
vt 0.575602 0.543328
vt 0.522377 0.464286
vt 0.576669 0.461735
vt 0.522910 0.536509
vt -215.095245 85.051445
vt -215.085785 85.310089
vt -215.107544 85.181389
vt -215.049744 84.929108
vt -215.031448 85.428772
vt -214.974136 84.822716
vt -214.948257 85.529350
vt -214.873550 84.739517
vt -214.841858 85.604965
vt -214.754868 84.685188
vt -214.719528 85.650467
vt -214.626175 84.663429
vt -214.589584 85.662758
vt -214.496231 84.675720
vt -214.460876 85.640999
vt -214.373886 84.721222
vt -214.342194 85.586670
vt -214.267502 84.796844
vt -214.241623 85.503471
vt -214.184296 84.897415
vt -214.166000 85.397079
vt -214.129974 85.016098
vt -214.120499 85.274742
vt -214.108215 85.144798
vt 0.785398 77.875000
vt 0.654498 0.000000
vt 0.785398 0.000000
vt 0.654498 77.875000
vt 0.523599 0.000000
vt 0.523599 77.875000
vt 0.392699 0.000000
vt 0.392699 77.875000
vt 0.261799 77.875000
vt 0.261799 0.000000
vt 0.130900 77.875000
vt 0.130900 0.000000
vt -0.000000 77.875000
vt -0.000000 0.000000
vt 3.010693 77.875000
vt 3.141593 0.000000
vt 3.141593 77.875000
vt 3.010693 0.000000
vt 2.879793 77.875000
vt 2.879793 0.000000
vt 2.748893 77.875000
vt 2.748893 0.000000
vt 2.617994 0.000000
vt 2.617994 77.875000
vt 2.487094 0.000000
vt 2.487094 77.875000
vt 2.356194 0.000000
vt 2.356194 77.875000
vt 2.225295 0.000000
vt 2.225295 77.875000
vt 2.094395 0.000000
vt 2.094395 77.875000
vt 1.963495 0.000000
vt 1.963495 77.875000
vt 1.832596 77.875000
vt 1.832596 0.000000
vt 1.701696 77.875000
vt 1.701696 0.000000
vt 1.570796 77.875000
vt 1.570796 0.000000
vt 1.439897 77.875000
vt 1.439897 0.000000
vt 1.308997 77.875000
vt 1.308997 0.000000
vt 1.178097 77.875000
vt 1.178097 0.000000
vt 1.047198 0.000000
vt 1.047198 77.875000
vt 0.916298 0.000000
vt 0.916298 77.875000
vt 6.069748 9.026687
vt 6.981112 9.991166
vt 6.981112 9.026687
vt 6.069748 9.991166
vn 0.0000 -1.0000 0.0000
vn 0.9993 0.0000 0.0366
vn 0.0000 1.0000 -0.0000
vn -0.6903 0.7231 -0.0253
vn -0.5839 0.6304 -0.5116
vn -0.6068 0.6155 0.5029
vn -0.0366 0.0000 0.9993
vn 0.0366 0.0000 -0.9993
vn -0.9993 0.0000 -0.0366
vn 0.0067 0.9831 -0.1827
vn -0.0067 0.9831 0.1827
vn -0.7623 0.0000 -0.6472
vn 0.0000 0.0000 -1.0000
vn 1.0000 0.0000 0.0000
vn 0.0000 0.0000 1.0000
vn -0.8103 0.0000 0.5860
vn -0.7593 0.0000 -0.6507
vn -0.7700 0.0000 0.6381
vn -0.6223 0.6067 0.4947
vn -0.0268 0.6789 0.7338
vn -0.2159 -0.6789 0.7018
vn -0.0269 -0.6789 0.7338
vn -0.2158 0.6789 0.7018
vn -0.3902 -0.6789 0.6220
vn -0.3901 0.6789 0.6220
vn -0.5379 -0.6789 0.4998
vn -0.5379 0.6789 0.4998
vn -0.6489 0.6789 0.3436
vn -0.6489 -0.6789 0.3436
vn -0.7157 0.6789 0.1639
vn -0.7157 -0.6789 0.1639
vn -0.7338 0.6789 -0.0269
vn -0.7338 -0.6789 -0.0269
vn -0.7018 0.6789 -0.2159
vn -0.7018 -0.6789 -0.2159
vn -0.6220 0.6789 -0.3901
vn -0.6220 -0.6789 -0.3901
vn -0.4999 0.6789 -0.5378
vn -0.4999 -0.6789 -0.5379
vn -0.3436 -0.6789 -0.6489
vn -0.3436 0.6789 -0.6489
vn -0.1640 -0.6789 -0.7157
vn -0.1640 0.6789 -0.7157
vn 0.0269 -0.6789 -0.7338
vn 0.0269 0.6789 -0.7338
vn 0.2159 -0.6789 -0.7018
vn 0.2159 0.6789 -0.7018
vn 0.3902 -0.6789 -0.6220
vn 0.3902 0.6789 -0.6220
vn 0.5379 -0.6789 -0.4998
vn 0.5378 0.6789 -0.4998
vn 0.6489 0.6789 -0.3436
vn 0.6489 -0.6789 -0.3436
vn 0.7157 0.6789 -0.1640
vn 0.7157 -0.6789 -0.1640
vn 0.7338 0.6789 0.0269
vn 0.7338 -0.6789 0.0269
vn 0.7018 0.6789 0.2159
vn 0.7018 -0.6789 0.2159
vn 0.6220 0.6789 0.3901
vn 0.6220 -0.6789 0.3901
vn 0.4999 0.6789 0.5379
vn 0.4999 -0.6789 0.5378
vn 0.3436 -0.6789 0.6489
vn 0.3436 0.6789 0.6489
vn 0.1640 -0.6789 0.7157
vn 0.1640 0.6789 0.7157
usemtl Material
s off
f 1/1/1 2/2/1 3/3/1
f 2/2/1 1/1/1 4/4/1
f 4/4/1 5/5/1 2/2/1
f 5/5/1 4/4/1 6/6/1
f 36/7/1 46/8/1 54/9/1
f 46/8/1 36/7/1 38/10/1
f 41/11/1 37/12/1 39/13/1
f 37/12/1 41/11/1 43/14/1
f 20/15/1 1/1/1 3/3/1
f 1/1/1 20/15/1 19/16/1
f 1/1/1 19/16/1 4/4/1
f 60/17/1 22/18/1 25/19/1
f 22/18/1 60/17/1 37/12/1
f 22/18/1 37/12/1 43/14/1
f 22/18/1 43/14/1 34/20/1
f 22/18/1 34/20/1 35/21/1
f 22/18/1 35/21/1 32/22/1
f 22/18/1 32/22/1 20/15/1
f 22/18/1 20/15/1 3/3/1
f 22/18/1 3/3/1 2/2/1
f 4/23/2 23/24/2 2/25/2
f 23/24/2 4/23/2 24/26/2
f 24/26/2 4/23/2 21/27/2
f 70/28/1 71/29/1 72/30/1
f 71/29/1 70/28/1 73/31/1
f 73/31/1 70/28/1 74/32/1
f 73/31/1 74/32/1 75/33/1
f 75/33/1 74/32/1 76/34/1
f 75/33/1 76/34/1 77/35/1
f 77/35/1 76/34/1 78/36/1
f 77/35/1 78/36/1 79/37/1
f 79/37/1 78/36/1 80/38/1
f 79/37/1 80/38/1 81/39/1
f 81/39/1 80/38/1 82/40/1
f 81/39/1 82/40/1 83/41/1
f 83/41/1 82/40/1 84/42/1
f 83/41/1 84/42/1 85/43/1
f 85/43/1 84/42/1 86/44/1
f 85/43/1 86/44/1 87/45/1
f 87/45/1 86/44/1 88/46/1
f 87/45/1 88/46/1 89/47/1
f 89/47/1 88/46/1 90/48/1
f 89/47/1 90/48/1 91/49/1
f 91/49/1 90/48/1 92/50/1
f 91/49/1 92/50/1 93/51/1
usemtl townhall-roof
f 7/52/3 8/53/3 9/54/3
f 8/53/3 7/52/3 10/55/3
f 8/53/3 10/55/3 11/56/3
f 11/56/3 10/55/3 12/57/3
f 12/57/3 10/55/3 13/58/3
f 9/54/3 14/59/3 15/60/3
f 14/59/3 9/54/3 8/53/3
f 15/60/3 14/59/3 16/61/3
f 15/60/3 16/61/3 17/62/3
f 17/62/3 16/61/3 18/63/3
f 17/62/3 18/63/3 13/58/3
f 13/58/3 18/63/3 12/57/3
f 47/64/4 52/65/4 55/66/4
f 52/65/4 47/64/4 50/67/4
f 57/68/5 52/69/5 50/70/5
f 47/71/6 55/72/6 45/73/6
f 61/74/3 62/75/3 63/76/3
f 62/75/3 61/74/3 64/77/3
f 64/77/3 61/74/3 65/78/3
f 65/78/3 61/74/3 66/79/3
f 16/80/7 62/81/7 64/82/7
f 62/81/7 16/80/7 14/83/7
f 62/84/2 8/85/2 63/86/2
f 8/85/2 62/84/2 14/87/2
f 8/88/8 61/89/8 63/90/8
f 61/89/8 8/88/8 11/91/8
f 12/92/9 61/93/9 11/94/9
f 61/93/9 12/92/9 66/95/9
f 12/96/7 65/97/7 66/98/7
f 65/97/7 12/96/7 18/99/7
f 65/100/2 16/101/2 64/102/2
f 16/101/2 65/100/2 18/103/2
f 68/104/10 21/105/10 24/106/10
f 21/105/10 68/104/10 69/107/10
f 67/108/11 24/109/11 23/110/11
f 24/109/11 67/108/11 68/111/11
usemtl Photo_Texture1
f 17/112/8 19/113/8 20/114/8
f 19/113/8 17/112/8 13/115/8
usemtl town-hall-wall-texture
f 19/116/2 21/117/2 4/118/2
f 2/119/2 10/120/2 22/121/2
f 10/120/2 2/119/2 23/122/2
f 10/120/2 23/122/2 24/123/2
f 10/120/2 24/123/2 13/124/2
f 13/124/2 24/123/2 21/117/2
f 13/124/2 21/117/2 19/116/2
f 26/125/9 43/126/9 44/127/9
f 43/126/9 26/125/9 28/128/9
f 34/129/9 43/126/9 28/128/9
f 6/130/2 67/131/2 5/132/2
f 67/131/2 6/130/2 68/133/2
f 68/133/2 6/130/2 69/134/2
usemtl Photo_Texture
f 10/135/7 25/136/7 22/137/7
f 25/136/7 10/135/7 7/138/7
usemtl Old-Town-Hall---front
f 26/139/8 27/140/8 28/141/8
f 27/140/8 26/139/8 29/142/8
f 33/143/9 34/144/9 28/145/9
f 34/144/9 33/143/9 35/146/9
f 45/147/9 38/148/9 46/149/9
f 38/148/9 45/147/9 47/150/9
f 38/148/9 47/150/9 48/151/9
f 40/152/12 42/153/12 49/154/12
f 42/155/9 39/156/9 36/157/9
f 39/156/9 42/155/9 41/158/9
f 50/159/8 51/160/8 52/161/8
f 51/160/8 53/162/8 49/163/8
f 53/162/8 51/160/8 50/159/8
f 48/164/3 36/165/3 38/166/3
f 47/167/7 36/168/7 48/169/7
f 36/168/7 47/167/7 54/170/7
f 54/170/7 47/167/7 55/171/7
f 52/161/8 42/172/8 56/173/8
f 42/172/8 52/161/8 49/163/8
f 49/163/8 52/161/8 51/160/8
f 56/174/1 36/175/1 54/176/1
f 36/175/1 56/174/1 42/177/1
f 40/178/3 49/179/3 53/180/3
f 7/181/9 46/149/9 25/182/9
f 46/149/9 7/181/9 47/150/9
f 47/150/9 7/181/9 9/183/9
f 25/182/9 46/149/9 60/184/9
f 46/149/13 47/150/13 45/147/13
f 47/150/9 9/183/9 50/185/9
f 50/185/9 9/183/9 57/186/9
f 57/186/9 9/183/9 58/187/9
f 58/187/9 9/183/9 59/188/9
f 46/149/9 37/189/9 60/184/9
f 37/189/9 46/149/9 38/148/9
f 9/190/8 30/191/8 59/192/8
f 30/191/8 9/190/8 15/193/8
usemtl Old-Town-Hall---front1
f 15/194/14 29/195/14 30/196/14
f 29/195/15 15/194/15 27/197/15
f 27/197/9 15/194/9 17/198/9
f 27/197/9 17/198/9 31/199/9
f 31/199/9 17/198/9 32/200/9
f 32/200/9 17/198/9 20/201/9
usemtl glass-roof-texture
f 27/202/3 33/203/3 28/204/3
f 33/203/3 27/202/3 31/205/3
usemtl side-glass-texture
f 33/206/8 32/207/8 35/208/8
f 32/207/8 33/206/8 31/209/8
usemtl R-bay-window
f 36/210/16 37/211/16 38/212/16
f 37/211/16 36/210/16 39/213/16
usemtl L-bay-window
f 40/214/12 41/215/12 42/216/12
f 41/215/12 40/214/12 43/217/12
f 43/217/14 40/214/14 44/218/14
usemtl town-hall-molding
f 55/219/9 56/220/9 54/221/9
f 56/220/9 55/219/9 52/222/9
f 58/223/5 52/224/5 57/225/5
f 58/226/17 56/227/17 52/228/17
f 57/229/9 53/230/9 50/231/9
f 53/230/9 57/229/9 40/232/9
f 40/232/9 57/229/9 44/233/9
f 44/233/9 57/229/9 58/234/9
f 44/233/9 58/234/9 26/235/9
f 26/235/9 58/234/9 59/236/9
f 55/237/18 54/238/18 45/239/18
f 54/240/19 46/241/19 45/242/19
f 59/243/8 29/244/8 26/245/8
f 29/244/8 59/243/8 30/246/8
usemtl Photo_Texture4
f 67/247/7 2/248/7 5/249/7
f 2/248/7 67/247/7 23/250/7
usemtl Photo_Texture2
f 21/251/8 6/252/8 4/253/8
f 6/252/8 21/251/8 69/254/8
usemtl [Metal_Corrogated_Shiny]
f 94/255/3 95/256/3 96/257/3
f 95/256/3 94/255/3 97/258/3
f 95/256/3 97/258/3 98/259/3
f 98/259/3 97/258/3 99/260/3
f 98/259/3 99/260/3 100/261/3
f 100/261/3 99/260/3 101/262/3
f 100/261/3 101/262/3 102/263/3
f 102/263/3 101/262/3 103/264/3
f 102/263/3 103/264/3 104/265/3
f 104/265/3 103/264/3 105/266/3
f 104/265/3 105/266/3 106/267/3
f 106/267/3 105/266/3 107/268/3
f 106/267/3 107/268/3 108/269/3
f 108/269/3 107/268/3 109/270/3
f 108/269/3 109/270/3 110/271/3
f 110/271/3 109/270/3 111/272/3
f 110/271/3 111/272/3 112/273/3
f 112/273/3 111/272/3 113/274/3
f 112/273/3 113/274/3 114/275/3
f 114/275/3 113/274/3 115/276/3
f 114/275/3 115/276/3 116/277/3
f 116/277/3 115/276/3 117/278/3
s 1
f 105/279/20 79/280/21 81/281/22
f 79/280/21 105/279/20 103/282/23
f 103/282/23 77/283/24 79/280/21
f 77/283/24 103/282/23 101/284/25
f 101/284/25 75/285/26 77/283/24
f 75/285/26 101/284/25 99/286/27
f 97/287/28 75/285/26 99/286/27
f 75/285/26 97/287/28 73/288/29
f 94/289/30 73/288/29 97/287/28
f 73/288/29 94/289/30 71/290/31
f 96/291/32 71/290/31 94/289/30
f 71/290/31 96/291/32 72/292/33
f 95/293/34 72/294/33 96/295/32
f 72/294/33 95/293/34 70/296/35
f 98/297/36 70/296/35 95/293/34
f 70/296/35 98/297/36 74/298/37
f 100/299/38 74/298/37 98/297/36
f 74/298/37 100/299/38 76/300/39
f 100/299/38 78/301/40 76/300/39
f 78/301/40 100/299/38 102/302/41
f 102/302/41 80/303/42 78/301/40
f 80/303/42 102/302/41 104/304/43
f 104/304/43 82/305/44 80/303/42
f 82/305/44 104/304/43 106/306/45
f 106/306/45 84/307/46 82/305/44
f 84/307/46 106/306/45 108/308/47
f 108/308/47 86/309/48 84/307/46
f 86/309/48 108/308/47 110/310/49
f 110/310/49 88/311/50 86/309/48
f 88/311/50 110/310/49 112/312/51
f 88/311/50 114/313/52 90/314/53
f 114/313/52 88/311/50 112/312/51
f 90/314/53 116/315/54 92/316/55
f 116/315/54 90/314/53 114/313/52
f 92/316/55 117/317/56 93/318/57
f 117/317/56 92/316/55 116/315/54
f 93/318/57 115/319/58 91/320/59
f 115/319/58 93/318/57 117/317/56
f 91/320/59 113/321/60 89/322/61
f 113/321/60 91/320/59 115/319/58
f 89/322/61 111/323/62 87/324/63
f 111/323/62 89/322/61 113/321/60
f 111/323/62 85/325/64 87/324/63
f 85/325/64 111/323/62 109/326/65
f 109/326/65 83/327/66 85/325/64
f 83/327/66 109/326/65 107/328/67
f 107/328/67 81/281/22 83/327/66
f 81/281/22 107/328/67 105/279/20
usemtl townhall_flag_copy
s off
f 118/329/2 119/330/2 120/331/2
f 119/330/2 118/329/2 121/332/2
